<svg width="32" height="32" viewBox="0 0 32 32" fill="none" xmlns="http://www.w3.org/2000/svg">
<path d="M17 9C17 8.44771 16.5523 8 16 8C15.4477 8 15 8.44771 15 9V13H11C10.4477 13 10 13.4477 10 14C10 14.5523 10.4477 15 11 15H15V19C15 19.5523 15.4477 20 16 20C16.5523 20 17 19.5523 17 19V15H21C21.5523 15 22 14.5523 22 14C22 13.4477 21.5523 13 21 13H17V9Z" fill="#222222"/>
<path fill-rule="evenodd" clip-rule="evenodd" d="M7.5 3C4.46243 3 2 5.46243 2 8.5V19.5C2 22.369 4.19675 24.725 7 24.9776V28.0568C7 29.6836 8.83874 30.6298 10.1625 29.6843L16.7205 25H24.5C27.5376 25 30 22.5376 30 19.5V8.5C30 5.46243 27.5376 3 24.5 3H7.5ZM4 8.5C4 6.567 5.567 5 7.5 5H24.5C26.433 5 28 6.567 28 8.5V19.5C28 21.433 26.433 23 24.5 23H16.4C16.1916 23 15.9884 23.0651 15.8188 23.1863L9 28.0568V24C9 23.4477 8.55228 23 8 23H7.5C5.567 23 4 21.433 4 19.5V8.5Z" fill="#222222"/>
</svg>
