<svg width="315" height="414" viewBox="0 0 315 414" fill="none" xmlns="http://www.w3.org/2000/svg">
<path d="M314.761 0.164062H0.760742V71.7826H23.1301V22.5708H292.391V59.3791L314.761 41.6634V0.164062Z" fill="white"/>
<path d="M0.866353 344.58L23.1303 327.213L23.1303 342.936C23.1303 355.081 32.96 364.928 45.0855 364.928H157.761V387.334H45.0855C23.8794 387.334 6.15157 372.417 1.78928 352.488L1.7788 352.44C1.46993 351.029 0.866353 348.273 0.866353 344.58Z" fill="white"/>
<path d="M157.761 413.164V387.561C165.166 384.259 171.831 381.493 179.438 378.337L179.442 378.335C183.753 376.547 188.366 374.633 193.588 372.424C211.609 364.802 229.478 364.608 241.029 364.608H269.39C281.515 364.608 291.345 354.761 291.345 342.616V319.762H313.714V342.616C313.714 367.136 293.869 387.014 269.39 387.014H234.659C223.457 387.267 215.924 387.92 204.756 392.612C193.588 397.304 179.477 403.46 157.761 413.164Z" fill="white"/>
</svg>
